<svg xmlns="http://www.w3.org/2000/svg" viewBox="0 0 723.72 358.78"><defs><style>.cls-1{fill:#00e34b;}.cls-1,.cls-2{stroke:#000;}.cls-2,.cls-3{fill:#e7e7e7;}.cls-3{font-size:27.76px;font-family:Baskerville-SemiBoldItalic, Baskerville;font-weight:700;font-style:italic;letter-spacing:-0.02em;}.cls-4{letter-spacing:-0.03em;}</style></defs><title>LOGO MUSE</title><g id="Calque_1" data-name="Calque 1"><polygon class="cls-1" points="0.5 73.83 0.5 1.1 41.19 36.88 82.55 2.87 82.55 73.83 0.5 73.83"/><path class="cls-1" d="M193.19,128.73H273.9v36.21s-5.33,31.67-38.69,29.91H226.5s-32.51-4.61-32.65-31.08Z" transform="translate(-81.95 -121.61)"/><path class="cls-1" d="M395.31,212.56h42V233s-2.78,16.49-20.15,15.58h-5.55s-13.89-3.36-16-16.19Z" transform="translate(-81.95 -121.61)"/><path class="cls-1" d="M372,137.37V122.71h-52.7s-16,2.35-16.68,15.25V196h56s14-5.86,14-14.07C372.63,178.43,372,137.37,372,137.37Z" transform="translate(-81.95 -121.61)"/><path class="cls-1" d="M591.44,137.37V122.71h-52.7s-16,2.35-16.68,15.25V196h56s14-5.86,14-14.07C592.1,178.43,591.44,137.37,591.44,137.37Z" transform="translate(-81.95 -121.61)"/><polygon class="cls-1" points="394.08 1.1 330.71 1.1 330.71 73.83 392.75 73.83 394.08 1.1"/><polygon class="cls-1" points="400.75 90.25 368.73 90.25 368.73 127 400.08 127 400.75 90.25"/><polygon class="cls-1" points="103.23 126.62 103.23 107.85 91.22 107.85 91.22 89.67 133.92 89.67 133.92 107.26 122.58 107.26 122.58 126.62 103.23 126.62"/><polygon class="cls-1" points="490.81 126.62 490.81 107.85 478.8 107.85 478.8 89.67 521.5 89.67 521.5 107.26 510.15 107.26 510.15 126.62 490.81 126.62"/><polygon class="cls-1" points="148.59 124.86 167.27 90.25 188.62 125.44 148.59 124.86"/><polygon class="cls-1" points="204.63 125.44 204.63 90.25 223.97 106.68 223.97 89.67 243.32 89.67 243.32 125.44 204.63 125.44"/><polygon class="cls-1" points="426.1 125.44 426.1 90.25 445.45 106.68 445.45 89.67 464.79 89.67 464.79 125.44 426.1 125.44"/><path class="cls-1" d="M360.31,247.64H374V211.27l-12.59,0s-20.63-3.3-23.89,16.2C337.49,227.51,334.88,248.26,360.31,247.64Z" transform="translate(-81.95 -121.61)"/><rect class="cls-2" x="15.84" y="57.41" width="14.01" height="30.5"/><rect class="cls-2" x="53.2" y="57.41" width="14.01" height="30.5"/><rect class="cls-2" x="144.59" y="2.28" width="14.01" height="30.5"/><rect class="cls-2" x="109.24" y="80.87" width="8.35" height="18.18"/><rect class="cls-2" x="164.43" y="116.94" width="8.35" height="18.18"/><rect class="cls-2" x="215.13" y="116.35" width="8.35" height="18.18"/><rect class="cls-2" x="331.2" y="87.61" width="8.35" height="18.18"/><rect class="cls-2" x="436.6" y="116.94" width="8.35" height="18.18"/><rect class="cls-2" x="391.75" y="96.55" width="20.68" height="7.34"/><rect class="cls-2" x="391.75" y="112.98" width="20.68" height="7.34"/><rect class="cls-2" x="496.64" y="81.16" width="8.35" height="18.18"/><rect class="cls-2" x="265.33" y="17.23" width="34.69" height="12.32"/><rect class="cls-2" x="209.3" y="48.91" width="34.69" height="12.32"/><rect class="cls-2" x="376.07" y="14.89" width="34.69" height="12.32"/><rect class="cls-2" x="374.74" y="48.32" width="34.69" height="12.32"/><rect class="cls-2" x="428.1" y="49.49" width="34.69" height="12.32"/><rect class="cls-2" x="486.14" y="17.23" width="34.69" height="12.32"/><polygon class="cls-2" points="300.25 102.96 280.01 102.96 280.01 120.56 286.68 120.56 286.68 110.59 300.02 110.59 300.25 102.96"/><text class="cls-3" transform="translate(299.91 324.8) scale(1.09 1)">Fanfa<tspan class="cls-4" x="65.87" y="0">r</tspan><tspan x="77.28" y="0">e féminine</tspan></text></g></svg>